<svg xmlns="http://www.w3.org/2000/svg" viewBox="0 0 512 512">
  <path fill="#E1306C" d="M349.33 69.33a120.78 120.78 0 01101.34 101.34c3.6 37 3.6 133.56 0 170.66a120.78 120.78 0 01-101.34 101.34c-37 3.6-133.56 3.6-170.66 0a120.78 120.78 0 01-101.34-101.34c-3.6-37-3.6-133.56 0-170.66a120.78 120.78 0 01101.34-101.34c37-3.6 133.56-3.6 170.66 0zm-17 38.6c-31.54-3.15-115.86-3.15-147.4 0-41 4.09-72.33 35.45-76.42 76.42-3.15 31.54-3.15 115.86 0 147.4 4.09 41 35.45 72.33 76.42 76.42 31.54 3.15 115.86 3.15 147.4 0 41-4.09 72.33-35.45 76.42-76.42 3.15-31.54 3.15-115.86 0-147.4-4.09-41-35.45-72.33-76.42-76.42z"/>
  <path fill="#E1306C" d="M256 152a104 104 0 10104 104 104 104 0 00-104-104zm0 169.33a65.33 65.33 0 1165.33-65.33 65.41 65.41 0 01-65.33 65.33zM375.3 162.38a25.68 25.68 0 11-25.68-25.68 25.68 25.68 0 0125.68 25.68z"/>
</svg>
