<svg xmlns="http://www.w3.org/2000/svg" viewBox="0 0 512 512">
  <path fill="#25D366" d="M414.73 97.1A222.14 222.14 0 00256.94 32C134 32 33.92 131.58 33.87 254.52a221.73 221.73 0 0029.78 111L32 480l118.25-30.87a221.71 221.71 0 00106.6 27.27h.06c122.92 0 223-99.58 223.06-222.52A222.15 222.15 0 00414.73 97.1zM256.94 438.66h-.04a184.81 184.81 0 01-94.3-25.72l-6.77-4-70.17 18.32 18.73-68.09-4.41-7a184.66 184.66 0 01-28.26-97.74c.05-102.21 83.62-185.64 186.2-185.64a185.35 185.35 0 01131.57 54.49 185.37 185.37 0 0154.34 131.18c-.04 102.21-83.6 185.66-186.19 185.66zm102-139c-5.59-2.79-33.12-16.3-38.25-18.15s-8.85-2.79-12.58 2.79-14.45 18.15-17.72 21.87-6.52 4.19-12.11 1.4-23.64-8.7-45-27.76c-16.65-14.8-27.9-33.09-31.16-38.68s-.35-8.62 2.45-11.4c2.51-2.51 5.59-6.52 8.38-9.78s3.73-5.59 5.59-9.31 1-7-.41-9.78-12.58-30.29-17.24-41.48c-4.52-10.9-9.14-9.42-12.58-9.59s-7-.21-10.74-.21-9.78 1.4-14.9 7-19.56 19.1-19.56 46.57 20 54 22.82 57.75 39.43 60.19 95.53 84.44c13.36 5.77 23.78 9.22 31.95 11.8 13.43 4.26 25.65 3.65 35.32 2.21 10.82-1.6 33.12-13.51 37.78-26.55s4.66-24.23 3.26-26.55-5.11-3.73-10.7-6.52z"/>
</svg>
