<svg xmlns="http://www.w3.org/2000/svg" viewBox="0 0 3000 2240" version="1.1" width="3000" height="2240">
	<defs>
		<linearGradient id="orange-shine" x1="-100%" y1="0%" x2="0%" y2="0%" gradientTransform="rotate(15)">
			<stop offset="0%" stop-color="#ea580c" />
			<stop offset="30%" stop-color="#f97316" />
			<stop offset="50%" stop-color="#ffffff" />
			<stop offset="70%" stop-color="#f97316" />
			<stop offset="100%" stop-color="#ea580c" />
			<animate attributeName="x1" dur="4s" repeatCount="indefinite" values="-100%; 100%; 100%" keyTimes="0; 0.3; 1" />
			<animate attributeName="x2" dur="4s" repeatCount="indefinite" values="0%; 200%; 200%" keyTimes="0; 0.3; 1" />
		</linearGradient>
	</defs>
	<path d="M 1527 296.635029448307 C 1465.9389794985143 301.11157260502404, 1417.02669654169 314.02030693251044, 1364.5 339.52138030762364 C 1322.6624581752776 359.83299885876994, 1288.6556334659465 384.21518758601786, 1254.4354105259822 418.4354105259822 C 1194.176925896113 478.6938951558521, 1154.2749059122095 553.3438761789314, 1139.552849136406 633.3613975079488 C 1137.1610711005817 646.3612217112079, 1133 679.6710984898551, 1133 685.817746367798 C 1133 691.0357375601732, 1134.4407713394198 689.4512783372443, 1136.316285288394 682.1707285050084 C 1137.283879334851 678.414629182763, 1140.8893439401547 668.3862834443726, 1144.3284288557359 659.8855157530296 C 1175.1150775060355 583.7867410512222, 1239.3248068995254 521.5391992220761, 1319.1464866964707 490.40972959538703 C 1419.4447674293262 451.2946384118252, 1529.0074516129787 467.12629015426353, 1618.3165497332557 533.6393773997663 C 1642.967640835022 551.9983151525638, 1668.3564654037853 576.4724326282003, 1685.236514534289 598.148353605817 C 1691.9663460211038 606.7902298452213, 1714.6689287612332 638.9228057693158, 1762.143312000539 707 C 1777.2934806808025 728.725, 1806.3278762348878 770.35, 1826.6641910096173 799.5 C 1847.000505784347 828.65, 1873.0217390856571 866, 1884.489153901418 882.5 C 1904.0114635778575 910.5898628711453, 1932.3648453854464 951.285883912132, 1949.9800255330474 976.5 C 1954.206699175764 982.55, 1965.4692538991633 998.75, 1975.007924918379 1012.5 C 1993.0575946492077 1038.5186097517064, 2014.288674259482 1068.9915330470596, 2033.6696243858632 1096.6970121661952 C 2039.9013309736386 1105.6053688576023, 2045 1113.339498356165, 2045 1113.883966607445 C 2045 1114.428434858725, 2023.9459373234342 1144.7147793839374, 1998.2131940520762 1181.1869544412498 C 1842.204752552119 1402.3047392340663, 1823.8819385036502 1428.3139185717944, 1781.014391693265 1489.5 C 1746.4931989189195 1538.7730904670798, 1725.4445255799071 1568.012069550856, 1715.8648893210166 1580 C 1651.972996646098 1659.9541386490816, 1579.272118025203 1705.1541488244725, 1492.5 1718.8717091409853 C 1383.77788564244 1736.0592827001033, 1276.817747736829 1696.5365207635605, 1189.4485842258678 1606.8914032559744 C 1164.781427301238 1581.581670482705, 1149.8929874871485 1562.8408167259613, 1118.8299067341718 1518 C 1088.641343337919 1474.4215845415868, 1066.9954949777564 1443.392227036018, 1055.000189196533 1426.5 C 1049.1417980865815 1418.25, 1030.9077394753494 1392.375, 1014.4800589493507 1369 C 984.0792864197945 1325.7426419844394, 974.1809728874736 1311.757601908912, 926.3616103701115 1244.5 C 892.6618073720217 1197.1014606817198, 868.6221276335658 1163.5478642752853, 832.1476296297119 1113 C 816.4712310222802 1091.275, 782.0496925919213 1043.575, 755.655322006692 1007 C 729.2609514214628 970.425, 696.790816556766 925.425, 683.4994667518104 907 C 638.9874741736372 845.2956979322704, 504.3315000611603 659.0735437745757, 471.9947045711176 614.5 C 444.0595054110697 575.9936853283651, 414.92399816874735 535.7439863548567, 389.83557900398955 501 C 374.1480899292601 479.275, 349.4041342658412 445.075, 334.84901086305865 425 C 320.2938874602761 404.925, 301.9346965060909 379.5, 294.0508087426472 368.5 C 286.16692097920344 357.5, 278.39244900703017 346.8125, 276.7742043600399 344.75 L 273.8319413655122 341.00000000000006 136.9159706827561 341 L 0 341 0 1129 L 0 1917 143.5 1917 L 287 1917 287 1374.3587060846612 L 287 831.7174121693228 297.9796812073249 846.6087060846614 C 304.0185058713536 854.7989177380977, 322.53973256423257 879.95, 339.1379627470559 902.5 C 382.22148298212073 961.0323477623598, 417.3927059543773 1008.72843333264, 450.11707128469436 1053 C 465.769068447477 1074.175, 482.04133541422783 1096.225, 486.2776645441405 1102 C 490.5139936740532 1107.775, 499.2951141802837 1119.7, 505.79126566909713 1128.5 C 540.7439887894399 1175.8486438837956, 579.0879463540759 1227.835191470603, 597.9880919264316 1253.5 C 609.7340327361507 1269.45, 627.3003745628937 1293.3, 637.0244070969716 1306.5 C 646.7484396310493 1319.7, 672.9149862877474 1355.25, 695.1722885563005 1385.5 C 717.4295908248536 1415.75, 754.0195698804868 1465.475, 776.4833531243743 1496 C 798.9471363682618 1526.525, 834.2102839250381 1574.45, 854.8459032505436 1602.5 C 918.3860354540701 1688.8701098665833, 923.0376823580806 1695.1316252303463, 932.849852222341 1707.5 C 1034.507363636339 1835.6406882180431, 1174.7584037722838 1916.8946227505758, 1337.5 1941.9326044515306 C 1397.2869420315424 1951.1308942264889, 1463.747279095153 1952.2161551852284, 1523.6281427076892 1944.9719752330843 C 1692.6993789201388 1924.5183213282298, 1848.1926602913657 1837.756826977907, 1954.3739618228963 1704.6262148116657 C 1969.014668240295 1686.2696286728553, 2008.9503757997015 1630.9484421184434, 2131.8690811814563 1458.75 C 2176.5274498103463 1396.1875, 2213.3887391654284 1345.0157847148685, 2213.7830575260828 1345.0350771441522 C 2214.177375886737 1345.0543695734357, 2226.65 1362.6968542463694, 2241.5 1384.2405986395602 C 2335.7732612008085 1521.0082109239183, 2549.8284047826096 1828.8729832972476, 2602.7094318003183 1903.75 L 2612.0670910506346 1917.0000000000002 2785.033545525317 1917 C 2880.1650954863926 1917, 2958 1916.7262985730247, 2958 1916.3917746067218 C 2958 1916.0572506404187, 2952.217642879041 1907.6197506404187, 2945.1503175089792 1897.6417746067218 C 2901.9523834484744 1836.6529382094516, 2788.424517585934 1676.5559292477874, 2765.6426201563136 1644.5 C 2750.789154122041 1623.6, 2715.382074387782 1573.65, 2686.9602207468492 1533.5 C 2658.5383671059167 1493.35, 2626.808327452143 1448.575, 2616.4490215162423 1434 C 2581.82677878798 1385.2883207729565, 2520.6864961302635 1298.8989529729731, 2494.01186091247 1261 C 2479.4952500773547 1240.375, 2459.975415679837 1212.7, 2450.634451140209 1199.5 C 2441.2934866005808 1186.3, 2424.433124552275 1162.45, 2413.1669799217516 1146.5 C 2401.9008352912283 1130.55, 2391.6782211725804 1116.15, 2390.4500596580897 1114.5 L 2388.217038722652 1111.5 2410.2857237497456 1080.5 C 2443.5063054875236 1033.834870989965, 2482.1492802820717 979.4517170825421, 2516.1604814769125 931.5 C 2532.9349570785553 907.85, 2558.9612370543605 871.175, 2573.996659200924 850 C 2589.0320813474873 828.825, 2611.0731883414182 797.775, 2622.976896965215 781 C 2634.8806055890113 764.225, 2666.6767965132344 719.45, 2693.635099019044 681.5 C 2720.593401524853 643.55, 2754.942786780875 595.175, 2769.9670662546478 574 C 2784.99134572842 552.825, 2801.650414521972 529.425, 2806.987219129207 522 C 2812.3240237364416 514.575, 2832.3594296108067 486.45, 2851.5103432944625 459.5 C 2870.6612569781187 432.55, 2897.2808944256326 395.1090343540664, 2910.6650931778277 376.2978541201475 C 2924.0492919300223 357.48667388622863, 2934.9999999999995 341.84784266828484, 2935 341.54489585805015 C 2935 341.24194904781547, 2860.6469942471404 341.1079146937491, 2769.771098326979 341.24704173790263 L 2604.542196653958 341.5 2592.199562307704 358.5 C 2571.889009323098 386.4745304812587, 2485.499196749126 505.881464492808, 2468.8443889604214 529 C 2460.325549086669 540.825, 2440.522246656309 568.275, 2424.837050226288 590 C 2373.6920203462355 660.8391367045582, 2289.8884595307013 777.5219413115984, 2248.1556957623625 836 C 2233.0441942417096 857.175, 2219.912762103764 875.4961748494305, 2218.9747354558167 876.7137218876234 C 2217.271060012876 878.9250716335315, 2217.263346979012 878.9191780388993, 2211.7768046679957 871.2137218876234 C 2206.474706923944 863.7673049349022, 2191.8613228616937 843.0381598235657, 2137.956981114607 766.5 C 2086.3435053371995 693.2146146290813, 1999.6788020564204 570.5254044630524, 1969.1331370611929 527.5 C 1940.4630263895838 487.1164264932785, 1929.5904839590798 473.65399916257877, 1907.043808272218 450.6207344394097 C 1822.4466233202063 364.19782301349056, 1715.3814861307503 310.790861025111, 1602 298.45670139514704 C 1588.1403002855257 296.9489795038979, 1538.9986199403631 295.7553792304931, 1527 296.635029448307 M 1350 614.7111244506684 C 1342.575 619.4033198983719, 1314.675 636.7427613741146, 1288 653.2432166189856 C 1261.325 669.7436718638564, 1232.075 687.851768005348, 1223 693.4834302667448 C 1154.256117371982 736.1437420571683, 1136.3449797577102 747.349240909623, 1135.2651711505077 748.371765400183 C 1134.307017920669 749.2790883615711, 1133.970928081457 769.775989537598, 1133.7651711505077 839.8513288291851 L 1133.5 930.1615713879573 1092 955.8648765572298 C 1069.175 970.0016944003296, 1029.8 994.3529828537395, 1004.5 1009.9788508981406 C 979.2 1025.6047189425417, 958.1693907485327 1038.8643780540788, 957.765312774517 1039.4447600348894 C 956.4651163853907 1041.3122475107969, 956.8459814825661 1174.8411091562582, 958.1585629235021 1177.3157414540894 C 959.1369758253925 1179.160360075168, 970.4762288283665 1195.564990981713, 1003.7734695219706 1243.3073642169068 C 1006.7682939796441 1247.6014145362055, 1009.4038050103468 1250.9295283230094, 1009.6301607013097 1250.7031726320267 C 1009.8565163922726 1250.476816941044, 1010.0277284972155 1209.5644057690852, 1010.0106320456273 1159.7867033610069 L 1009.979547588194 1069.2817898917738 1035.239773794097 1053.773045762919 C 1049.1328982073437 1045.243236492049, 1068.15 1033.5339537189232, 1077.5 1027.7524173781949 C 1086.85 1021.9708810374667, 1103.275 1011.8182331272246, 1114 1005.1909775776569 L 1133.5 993.1414220329882 1133.7522510483416 1211.69993091258 L 1134.0045020966832 1430.2584397921719 1146.1954086598305 1447.879219896086 C 1190.6811590783032 1512.1790832262777, 1207.9313370338332 1534.0665461724784, 1236.9425336153574 1563.02147176495 C 1267.6717635826544 1593.6910983939902, 1294.06693324729 1613.1485487437185, 1326.5 1629.039609847288 C 1349.272177730519 1640.197175381752, 1378.964905089476 1650.9999999999984, 1386.8604983459093 1651 L 1388.9979424131686 1651.0000000000002 1389.2489712065844 1168.938627073524 L 1389.5 686.877254147048 1458.739820678908 732.688627073524 L 1527.979641357816 778.5 1527.989820678908 1209.7813847963248 C 1527.99848306848 1576.792832464092, 1528.2068874445729 1641.1421597541664, 1529.3883116676143 1641.5955147660225 C 1532.2354006997823 1642.6880453378185, 1569.61953221766 1625.6794822209292, 1578.9073835340191 1619.0659487407493 L 1581.9965182816609 1616.866290780858 1582.2482591408304 1334.029646826039 L 1582.5 1051.1930028712197 1598 1060.992002935588 C 1606.525 1066.3814529709907, 1636.225 1085.3740727871386, 1664 1103.1978247492502 L 1714.5 1135.6046464985443 1714.752949537548 1301.3023232492721 C 1714.9019833211519 1398.9287191696526, 1715.3765055552888 1467, 1715.9080215562308 1467 C 1716.4041889208552 1467.0000000000002, 1726.3944968399028 1453.1625000000001, 1738.1087058207813 1436.25 C 1749.8229148016599 1419.3375, 1761.3406323932525 1402.8224627609666, 1763.7036338020985 1399.5499172465925 L 1768 1393.599834493185 1768 1249.983961239792 L 1768 1106.3680879863991 1752.25 1096.2948432684389 C 1743.5875 1090.7545586735607, 1711.075 1069.9264042381717, 1680 1050.0100556342409 C 1648.925 1030.0937070303103, 1614.1805577072826 1007.8813473564526, 1602.7901282384055 1000.6492563590017 L 1582.0802564768112 987.5 1582.0401282384055 868.3688449717561 L 1582 749.2376899435121 1551.25 728.924163254577 C 1534.3375 717.7517235756626, 1502.5 696.846084440964, 1480.5 682.4671873996912 C 1441.7214405707887 657.1220549705315, 1423.5465107344228 645.1988016133896, 1383.253988014931 618.6711315519467 C 1372.6686814231432 611.702009198376, 1363.8936814231433 606.0404685000672, 1363.753988014931 606.0899300001493 C 1363.6142946067189 606.1393915002312, 1357.425 610.0189290029649, 1350 614.7111244506684" stroke="none" fill="url(#orange-shine)" fill-rule="evenodd" data-fill-layer-id="trace-color"/>
</svg>